# xmcd
# 
# Track frame offsets:
#     150
#     17862
#     45707
#     64582
#     86257
#     104027
#     121252
#     142630
#     157592
#     173087
#     190915
#     210652
#     223757
#     240297
#     279725
# 
# Disc length: 3895
# 
# Revision: 1
# Processed by: cddbd v1.5.2PL0 Copyright (c) Steve Scherf et al.
# Submitted via: BonkEnc v1.0.8
# 
DISCID=c50f350f
DTITLE=B.B. and the Bluesshacks - Straight Blues Big Swing -Blues Edition-
DYEAR=1999
DGENRE=Blues/Swing
TTITLE0=Lonesome Without You
TTITLE1=Ordinary Blues
TTITLE2=Lowdown Ways
TTITLE3=Run All Over Town
TTITLE4=Pocketful Of Wishes
TTITLE5=Still Jivin'
TTITLE6=Too Long
TTITLE7=How I Cried For You
TTITLE8=Ain't Gonna Cry No More
TTITLE9=Have Mercy On A Falling Man
TTITLE10=Stompin' and Rollin'
TTITLE11=Too Close Love
TTITLE12=It's Up To You
TTITLE13=Close The Door
TTITLE14=King Of Meat
EXTD=
EXTT0=
EXTT1=
EXTT2=
EXTT3=
EXTT4=
EXTT5=
EXTT6=
EXTT7=
EXTT8=
EXTT9=
EXTT10=
EXTT11=
EXTT12=
EXTT13=
EXTT14=
PLAYORDER=
